<svg baseProfile="full" height="1000" version="1.1" viewBox="0 0 1000 1000" width="1000" xmlns="http://www.w3.org/2000/svg" xmlns:ev="http://www.w3.org/2001/xml-events" xmlns:xlink="http://www.w3.org/1999/xlink"><title>inku render (editable SVG)</title><desc>Generated by inku. Groups and IDs are included for vector editing.</desc><metadata id="inku_metadata">{"generator":"inku","svg_profile":"editable"}</metadata><defs /><g id="inku_artboard"><g id="layer_00_background"><rect fill="#ffffff" height="1000" id="background" width="1000" x="0" y="0" /></g><g id="layer_10_content"><g id="instruction_000_square_black_pencil"><g id="mark_000_000_square"><rect fill="none" height="440.000000" stroke="none" width="440.000000" x="280.000000" y="280.000000" /><g class="contour-stroke-v1 controls-88 events-0"><path d="M 280.827271 279.858927 L 300.121650 277.906326 L 320.121332 275.001263 L 340.119243 272.114396 L 360.116227 269.297275 L 380.112170 266.547589 L 400.107464 263.892209 L 420.102102 261.320067 L 440.092796 258.822649 L 460.083739 256.566803 L 480.076146 254.494939 L 499.973795 252.596274 L 519.878822 255.852900 L 539.882478 259.015401 L 559.886395 262.083001 L 579.891591 264.990569 L 599.896924 267.769265 L 619.904359 270.349491 L 639.911813 272.727164 L 659.918679 274.947834 L 679.926413 276.969253 L 699.927580 278.789797 L 719.452932 280.540867 L 720.945612 300.056347 L 722.101594 320.042062 L 723.036441 340.034226 L 723.765859 360.025400 L 724.238570 380.017418 L 724.564413 400.010247 L 724.713164 420.001616 L 724.637122 439.993152 L 724.393146 459.985788 L 723.981851 479.977700 L 723.343522 499.957213 L 721.935550 519.945490 L 720.736365 539.954955 L 719.800789 559.966334 L 719.159291 579.974870 L 718.591277 599.981388 L 718.254447 619.990490 L 718.140157 639.997432 L 718.132219 660.003453 L 718.300876 680.010370 L 718.633561 700.018028 L 719.424350 719.421284 L 700.026568 718.576974 L 680.026288 717.962968 L 660.023182 717.258256 L 640.018327 716.483613 L 620.014303 715.527940 L 600.012873 714.418041 L 580.015167 713.181729 L 560.019185 711.783092 L 540.028290 710.250921 L 520.042105 708.561358 L 500.016924 706.763567 L 479.972540 707.307484 L 459.967394 708.005671 L 439.962095 708.824823 L 419.958260 709.809440 L 399.954019 710.823875 L 379.948532 711.989152 L 359.945261 713.297126 L 339.943337 714.669733 L 319.941459 716.093975 L 299.936981 717.558476 L 280.582438 719.419439 L 282.498259 700.067446 L 284.120911 680.066903 L 285.828672 660.069418 L 287.631084 640.072755 L 289.535198 620.075492 L 291.440626 600.076001 L 293.364157 580.077771 L 295.403782 560.080122 L 297.406388 540.079375 L 299.420452 520.079017 L 301.448106 500.079249 L 303.547167 480.043849 L 303.736355 460.006851 L 303.902966 440.006215 L 304.060222 420.005082 L 304.162822 400.004368 L 304.285933 380.004923 L 304.433980 360.005581 L 304.604873 340.004183 L 304.666721 320.001896 L 304.591933 299.592856 Z M 279.172729 280.141073 L 299.878350 276.238832 L 319.878668 273.326174 L 339.880757 270.441485 L 359.883773 267.625561 L 379.887830 264.884163 L 399.892536 262.241345 L 419.897898 259.696433 L 439.907204 257.249323 L 459.916261 255.012789 L 479.923854 252.955320 L 500.026205 251.070043 L 520.121178 254.344497 L 540.117522 257.504531 L 560.113605 260.559849 L 580.108409 263.462990 L 600.103076 266.228433 L 620.095641 268.807494 L 640.088187 271.194384 L 660.081321 273.414571 L 680.073587 275.438397 L 700.072420 277.263632 L 720.547068 279.459133 L 722.502776 299.943653 L 723.688146 319.957938 L 724.653832 339.965774 L 725.409660 359.974600 L 725.924015 379.982582 L 726.264587 399.989753 L 726.413760 419.998384 L 726.343928 440.006848 L 726.091867 460.014212 L 725.660564 480.022300 L 725.016036 500.042787 L 723.613666 520.054510 L 722.425963 540.045045 L 721.482795 560.033666 L 720.800541 580.025130 L 720.242460 600.018612 L 719.901910 620.009510 L 719.770016 640.002568 L 719.772018 659.996547 L 719.946220 679.989630 L 720.279112 699.981972 L 720.575650 720.578716 L 699.973432 720.129569 L 679.973712 719.299121 L 659.976818 718.300338 L 639.981673 717.219198 L 619.985697 716.044306 L 599.987127 714.852758 L 579.984833 713.652602 L 559.980815 712.334160 L 539.971710 711.013249 L 519.957895 709.618220 L 499.983076 708.126321 L 480.027460 708.885066 L 460.032606 709.669193 L 440.037905 710.503788 L 420.041740 711.477651 L 400.045981 712.508101 L 380.051468 713.666068 L 360.054739 714.945584 L 340.056663 716.298433 L 320.058541 717.715195 L 300.063019 719.187178 L 279.417562 720.580561 L 280.874514 699.932554 L 282.525066 679.933097 L 284.251786 659.930582 L 286.058458 639.927245 L 287.947440 619.924508 L 289.856309 599.923999 L 291.793829 579.922229 L 293.817184 559.919878 L 295.831509 539.920625 L 297.864649 519.920983 L 299.915955 499.920751 L 302.013815 479.956151 L 302.203189 459.993149 L 302.373017 439.993785 L 302.529308 419.994918 L 302.644273 399.995632 L 302.763799 379.995077 L 302.890599 359.994419 L 303.023389 339.995817 L 303.081015 319.998104 L 303.227617 300.407144 Z" fill="#111111" fill-opacity="0.660000" fill-rule="evenodd" stroke="none" /></g><polyline class="material-outline stratum-0" fill="none" points="327.516804,274.977858 328.903193,274.776574 330.856854,274.492931" stroke="#111111" stroke-linecap="round" stroke-opacity="0.448309" stroke-width="0.450000" /><polyline class="material-outline stratum-0" fill="none" points="333.355041,274.130231 334.755562,273.926895 335.953922,273.752911" stroke="#111111" stroke-linecap="round" stroke-opacity="0.354196" stroke-width="0.450000" /><polyline class="material-outline stratum-0" fill="none" points="360.870393,270.656579 361.159961,270.623217 361.613275,270.576993" stroke="#111111" stroke-linecap="round" stroke-opacity="0.321673" stroke-width="0.450000" /><polyline class="material-outline stratum-0" fill="none" points="370.118746,269.709702 372.926404,269.423409 375.060881,269.205759" stroke="#111111" stroke-linecap="round" stroke-opacity="0.500000" stroke-width="0.450000" /><polyline class="material-outline stratum-0" fill="none" points="386.897559,267.913154 387.624236,267.829482 388.828872,267.690777" stroke="#111111" stroke-linecap="round" stroke-opacity="0.336834" stroke-width="0.450000" /><polyline class="material-outline stratum-0" fill="none" points="392.507087,267.267257 393.499147,267.153029 396.436603,266.814802 399.374059,266.476575 402.310337,266.128348 402.310337,266.128348" stroke="#111111" stroke-linecap="round" stroke-opacity="0.348271" stroke-width="0.450000" /><polyline class="material-outline stratum-0" fill="none" points="419.103510,264.104308 419.924046,264.005410 422.862248,263.673888 425.800992,263.347033 428.709145,263.023581" stroke="#111111" stroke-linecap="round" stroke-opacity="0.404895" stroke-width="0.450000" /><polyline class="material-outline stratum-0" fill="none" points="428.771403,263.016656 431.678478,262.693324 433.726859,262.465497" stroke="#111111" stroke-linecap="round" stroke-opacity="0.474605" stroke-width="0.450000" /><polyline class="material-outline stratum-0" fill="none" points="435.982213,262.214651 437.555964,262.039614 438.211463,261.966767" stroke="#111111" stroke-linecap="round" stroke-opacity="0.375031" stroke-width="0.450000" /><polyline class="material-outline stratum-0" fill="none" points="457.499191,259.897209 458.135626,259.829248 458.593706,259.776759" stroke="#111111" stroke-linecap="round" stroke-opacity="0.334369" stroke-width="0.450000" /><polyline class="material-outline stratum-0" fill="none" points="498.684698,253.871681 499.088230,253.807933 500.162801,253.862419" stroke="#111111" stroke-linecap="round" stroke-opacity="0.312379" stroke-width="0.450000" /><polyline class="material-outline stratum-0" fill="none" points="548.705970,261.848034 551.549869,262.407848 552.994046,262.692131" stroke="#111111" stroke-linecap="round" stroke-opacity="0.500000" stroke-width="0.450000" /><polyline class="material-outline stratum-0" fill="none" points="589.372375,268.179845 589.526380,268.194550 589.985683,268.238404" stroke="#111111" stroke-linecap="round" stroke-opacity="0.293367" stroke-width="0.450000" /><polyline class="material-outline stratum-0" fill="none" points="668.724018,275.518366 669.009816,275.548089 671.950817,275.853958 672.393259,275.899973" stroke="#111111" stroke-linecap="round" stroke-opacity="0.315713" stroke-width="0.450000" /><polyline class="material-outline stratum-0" fill="none" points="676.463344,276.323268 677.832819,276.465696 680.774689,276.762757 681.029799,276.786524" stroke="#111111" stroke-linecap="round" stroke-opacity="0.383768" stroke-width="0.450000" /><polyline class="material-outline stratum-0" fill="none" points="695.242907,278.110670 695.495264,278.134181 696.194379,278.199313" stroke="#111111" stroke-linecap="round" stroke-opacity="0.307749" stroke-width="0.450000" /><polyline class="material-outline stratum-0" fill="none" points="711.451154,279.881494 713.129027,280.075860 716.066249,280.416110 719.003472,280.756360 719.292460,283.527410 719.295516,283.630073" stroke="#111111" stroke-linecap="round" stroke-opacity="0.356216" stroke-width="0.450000" /><polyline class="material-outline stratum-0" fill="none" points="720.409708,314.784874 720.462704,316.031194 720.525450,317.506788" stroke="#111111" stroke-linecap="round" stroke-opacity="0.392269" stroke-width="0.450000" /><polyline class="material-outline stratum-0" fill="none" points="724.190048,492.208602 724.162256,493.370103 724.118142,495.213739" stroke="#111111" stroke-linecap="round" stroke-opacity="0.390736" stroke-width="0.450000" /><polyline class="material-outline stratum-0" fill="none" points="724.065178,497.427227 724.020794,499.282139 723.783745,502.227999 723.579934,504.299564" stroke="#111111" stroke-linecap="round" stroke-opacity="0.432863" stroke-width="0.450000" /><polyline class="material-outline stratum-0" fill="none" points="721.599130,524.401979 721.463720,525.768863 721.172225,528.711324 720.897221,531.487314" stroke="#111111" stroke-linecap="round" stroke-opacity="0.472209" stroke-width="0.450000" /><polyline class="material-outline stratum-0" fill="none" points="717.678777,630.228654 717.676615,632.097344 717.673195,635.054206 717.671789,636.269065" stroke="#111111" stroke-linecap="round" stroke-opacity="0.329137" stroke-width="0.450000" /><polyline class="material-outline stratum-0" fill="none" points="710.354866,719.430327 709.830150,719.413634 709.544283,719.404540" stroke="#111111" stroke-linecap="round" stroke-opacity="0.302926" stroke-width="0.450000" /><polyline class="material-outline stratum-0" fill="none" points="610.796348,713.624157 609.478949,713.562583 608.334989,713.509116" stroke="#111111" stroke-linecap="round" stroke-opacity="0.337010" stroke-width="0.450000" /><polyline class="material-outline stratum-0" fill="none" points="597.606611,712.982910 594.713518,712.818827 591.761399,712.651395 591.104255,712.614125" stroke="#111111" stroke-linecap="round" stroke-opacity="0.363798" stroke-width="0.450000" /><polyline class="material-outline stratum-0" fill="none" points="587.541606,712.412067 585.857159,712.316533 583.095200,712.159887" stroke="#111111" stroke-linecap="round" stroke-opacity="0.416128" stroke-width="0.450000" /><polyline class="material-outline stratum-0" fill="none" points="555.122757,710.438748 553.392467,710.329729 550.441454,710.143797 548.883611,710.045643" stroke="#111111" stroke-linecap="round" stroke-opacity="0.423432" stroke-width="0.450000" /><polyline class="material-outline stratum-0" fill="none" points="490.497488,706.703813 488.495201,706.771510 487.572463,706.802707" stroke="#111111" stroke-linecap="round" stroke-opacity="0.391504" stroke-width="0.450000" /><polyline class="material-outline stratum-0" fill="none" points="415.990082,709.186194 414.615847,709.248231 413.621530,709.293118" stroke="#111111" stroke-linecap="round" stroke-opacity="0.315592" stroke-width="0.450000" /><polyline class="material-outline stratum-0" fill="none" points="339.344843,713.955098 337.892960,714.075636 335.919668,714.251458" stroke="#111111" stroke-linecap="round" stroke-opacity="0.445135" stroke-width="0.450000" /><polyline class="material-outline stratum-0" fill="none" points="331.949278,714.605222 329.057371,714.862893 326.112175,715.125312 325.404881,715.188332" stroke="#111111" stroke-linecap="round" stroke-opacity="0.473034" stroke-width="0.450000" /><polyline class="material-outline stratum-0" fill="none" points="281.170123,713.252847 281.281818,712.302931 281.362975,711.612729" stroke="#111111" stroke-linecap="round" stroke-opacity="0.363399" stroke-width="0.450000" /><polyline class="material-outline stratum-0" fill="none" points="282.952107,697.970725 282.991559,697.617854 283.022720,697.336359" stroke="#111111" stroke-linecap="round" stroke-opacity="0.306259" stroke-width="0.450000" /><polyline class="material-outline stratum-0" fill="none" points="284.609532,683.001966 284.618241,682.923296 284.941352,679.984155 285.022446,679.137002" stroke="#111111" stroke-linecap="round" stroke-opacity="0.319280" stroke-width="0.450000" /><polyline class="material-outline stratum-0" fill="none" points="287.700085,650.913045 287.734104,650.547720 288.008256,647.603593 288.282409,644.659465 288.556561,641.715338 288.564116,641.636416" stroke="#111111" stroke-linecap="round" stroke-opacity="0.322806" stroke-width="0.450000" /><polyline class="material-outline stratum-0" fill="none" points="290.199951,624.964678 290.289266,624.058991 290.349639,623.446792" stroke="#111111" stroke-linecap="round" stroke-opacity="0.345081" stroke-width="0.450000" /><polyline class="material-outline stratum-0" fill="none" points="290.734460,619.518708 290.864987,618.173357 290.988663,616.888811" stroke="#111111" stroke-linecap="round" stroke-opacity="0.499634" stroke-width="0.450000" /><polyline class="material-outline stratum-0" fill="none" points="301.461062,516.775504 301.675764,515.264110 302.091628,512.336637 302.507492,509.409163 302.649830,508.407178" stroke="#111111" stroke-linecap="round" stroke-opacity="0.457581" stroke-width="0.450000" /><polyline class="material-outline stratum-0" fill="none" points="304.914599,490.576307 305.109211,488.877169 305.299350,487.217094" stroke="#111111" stroke-linecap="round" stroke-opacity="0.500000" stroke-width="0.450000" /><polyline class="material-outline stratum-0" fill="none" points="305.578398,457.879657 305.531188,456.415506 305.477011,454.735247" stroke="#111111" stroke-linecap="round" stroke-opacity="0.379630" stroke-width="0.450000" /><polyline class="material-outline stratum-0" fill="none" points="304.985095,436.218805 304.982851,435.726025 304.977443,434.538756" stroke="#111111" stroke-linecap="round" stroke-opacity="0.363330" stroke-width="0.450000" /><polyline class="material-outline stratum-0" fill="none" points="304.944398,427.283720 304.942448,426.855526 304.929988,424.119979" stroke="#111111" stroke-linecap="round" stroke-opacity="0.309236" stroke-width="0.450000" /><polyline class="material-outline stratum-0" fill="none" points="304.917843,419.763649 304.921361,417.985030 304.934242,415.398968" stroke="#111111" stroke-linecap="round" stroke-opacity="0.434738" stroke-width="0.450000" /><polyline class="material-outline stratum-0" fill="none" points="304.937139,414.817196 304.950816,412.071375 304.960292,410.168856" stroke="#111111" stroke-linecap="round" stroke-opacity="0.500000" stroke-width="0.450000" /><polyline class="material-outline stratum-0" fill="none" points="304.973061,407.605190 304.980270,406.157721 304.989542,404.296111" stroke="#111111" stroke-linecap="round" stroke-opacity="0.433379" stroke-width="0.450000" /><polyline class="material-outline stratum-0" fill="none" points="304.999490,402.298842 305.009724,400.244066 305.025847,397.287246 305.031874,396.190100" stroke="#111111" stroke-linecap="round" stroke-opacity="0.467504" stroke-width="0.450000" /><polyline class="material-outline stratum-0" fill="none" points="306.072700,341.259108 306.078253,341.123826 306.206341,338.169743 306.309993,335.853708" stroke="#111111" stroke-linecap="round" stroke-opacity="0.473510" stroke-width="0.450000" /><polyline class="material-outline stratum-0" fill="none" points="306.415359,333.499364 306.470740,332.261928 306.503045,331.540088" stroke="#111111" stroke-linecap="round" stroke-opacity="0.349457" stroke-width="0.450000" /><polyline class="material-outline stratum-0" fill="none" points="306.721973,326.648281 306.735138,326.354114 306.750680,326.006839" stroke="#111111" stroke-linecap="round" stroke-opacity="0.300464" stroke-width="0.450000" /><polyline class="material-outline stratum-0" fill="none" points="306.866597,306.102254 306.861780,305.663283 306.857350,305.259545" stroke="#111111" stroke-linecap="round" stroke-opacity="0.301801" stroke-width="0.450000" /><polyline class="material-outline stratum-1" fill="none" points="335.122430,271.746689 335.527709,271.686927 338.450917,271.255879 339.507596,271.117998" stroke="#111111" stroke-linecap="round" stroke-opacity="0.381562" stroke-width="0.495000" /><polyline class="material-outline stratum-1" fill="none" points="378.462626,267.163368 379.600792,267.063648 382.539605,266.757451 384.209793,266.576710" stroke="#111111" stroke-linecap="round" stroke-opacity="0.447016" stroke-width="0.495000" /><polyline class="material-outline stratum-1" fill="none" points="390.210266,265.927365 391.352607,265.803746 393.143103,265.609986" stroke="#111111" stroke-linecap="round" stroke-opacity="0.500000" stroke-width="0.495000" /><polyline class="material-outline stratum-1" fill="none" points="416.510042,262.379242 417.695259,262.199867 420.616009,261.752624 421.549825,261.600500" stroke="#111111" stroke-linecap="round" stroke-opacity="0.430623" stroke-width="0.495000" /><polyline class="material-outline stratum-1" fill="none" points="460.711826,255.918228 461.549569,255.821130 464.489023,255.520199 465.498642,255.416837" stroke="#111111" stroke-linecap="round" stroke-opacity="0.476957" stroke-width="0.495000" /><polyline class="material-outline stratum-1" fill="none" points="481.759255,253.768858 482.127599,253.733543 483.230661,253.630624" stroke="#111111" stroke-linecap="round" stroke-opacity="0.356039" stroke-width="0.495000" /><polyline class="material-outline stratum-1" fill="none" points="486.647951,253.311781 488.011679,253.184541 490.953719,252.910040 491.999026,252.812510" stroke="#111111" stroke-linecap="round" stroke-opacity="0.372418" stroke-width="0.495000" /><polyline class="material-outline stratum-1" fill="none" points="509.451886,253.617431 511.445331,253.944200 513.828007,254.334773" stroke="#111111" stroke-linecap="round" stroke-opacity="0.500000" stroke-width="0.495000" /><polyline class="material-outline stratum-1" fill="none" points="522.596683,255.735751 523.115608,255.813647 526.037687,256.252280 526.390265,256.305206" stroke="#111111" stroke-linecap="round" stroke-opacity="0.324037" stroke-width="0.495000" /><polyline class="material-outline stratum-1" fill="none" points="556.864964,260.720174 558.205073,260.908667 561.004193,261.302211" stroke="#111111" stroke-linecap="round" stroke-opacity="0.458839" stroke-width="0.495000" /><polyline class="material-outline stratum-1" fill="none" points="641.738037,273.396997 642.950257,273.528413 643.396135,273.576751" stroke="#111111" stroke-linecap="round" stroke-opacity="0.292232" stroke-width="0.495000" /><polyline class="material-outline stratum-1" fill="none" points="653.370113,274.658031 654.700681,274.802278 657.638287,275.120744 660.576683,275.431531 661.040130,275.476647" stroke="#111111" stroke-linecap="round" stroke-opacity="0.337460" stroke-width="0.495000" /><polyline class="material-outline stratum-1" fill="none" points="681.102142,277.419956 681.164010,277.425770 684.107058,277.689241 685.899146,277.849675" stroke="#111111" stroke-linecap="round" stroke-opacity="0.321462" stroke-width="0.495000" /><polyline class="material-outline stratum-1" fill="none" points="706.801674,279.667500 707.656548,279.737414 709.430907,279.882527" stroke="#111111" stroke-linecap="round" stroke-opacity="0.390928" stroke-width="0.495000" /><polyline class="material-outline stratum-1" fill="none" points="711.926683,280.086639 713.546519,280.219115 715.253993,280.358757" stroke="#111111" stroke-linecap="round" stroke-opacity="0.368492" stroke-width="0.495000" /><polyline class="material-outline stratum-1" fill="none" points="717.554404,280.597118 719.313237,280.824073 719.554201,283.769049 719.567521,283.931841" stroke="#111111" stroke-linecap="round" stroke-opacity="0.355629" stroke-width="0.495000" /><polyline class="material-outline stratum-1" fill="none" points="723.755768,338.137788 723.898765,339.738524 724.179457,342.679975 724.214429,343.044220" stroke="#111111" stroke-linecap="round" stroke-opacity="0.428092" stroke-width="0.495000" /><polyline class="material-outline stratum-1" fill="none" points="725.383302,355.218374 725.591463,357.386435 725.855977,360.329006 725.989284,363.163764" stroke="#111111" stroke-linecap="round" stroke-opacity="0.375799" stroke-width="0.495000" /><polyline class="material-outline stratum-1" fill="none" points="726.005521,363.509037 726.133577,366.232118 726.151204,366.606945" stroke="#111111" stroke-linecap="round" stroke-opacity="0.352490" stroke-width="0.495000" /><polyline class="material-outline stratum-1" fill="none" points="726.974472,388.884031 726.995670,389.853121 727.008992,390.462194" stroke="#111111" stroke-linecap="round" stroke-opacity="0.319482" stroke-width="0.495000" /><polyline class="material-outline stratum-1" fill="none" points="727.234569,401.244345 727.242147,401.669786 727.245289,401.882342" stroke="#111111" stroke-linecap="round" stroke-opacity="0.299582" stroke-width="0.495000" /><polyline class="material-outline stratum-1" fill="none" points="727.356685,409.419121 727.373153,410.533271 727.384877,411.326489" stroke="#111111" stroke-linecap="round" stroke-opacity="0.401745" stroke-width="0.495000" /><polyline class="material-outline stratum-1" fill="none" points="727.507215,422.351502 727.507215,422.351502 727.499932,425.306311 727.492649,428.261120 727.485367,431.215929 727.478084,434.170738 727.470801,437.125547 727.469887,437.374518" stroke="#111111" stroke-linecap="round" stroke-opacity="0.439620" stroke-width="0.495000" /><polyline class="material-outline stratum-1" fill="none" points="727.017812,447.736675 726.948902,448.929959 726.778551,451.879862 726.608199,454.829765 726.476081,457.117592" stroke="#111111" stroke-linecap="round" stroke-opacity="0.364725" stroke-width="0.495000" /><polyline class="material-outline stratum-1" fill="none" points="725.508349,469.437154 725.497841,469.560834 725.444092,470.193488" stroke="#111111" stroke-linecap="round" stroke-opacity="0.291620" stroke-width="0.495000" /><polyline class="material-outline stratum-1" fill="none" points="725.175108,473.359556 724.997571,475.449257 724.914613,476.425716" stroke="#111111" stroke-linecap="round" stroke-opacity="0.423501" stroke-width="0.495000" /><polyline class="material-outline stratum-1" fill="none" points="724.012875,490.554308 723.866276,493.140690 723.699062,496.090773 723.531848,499.040856 723.502235,499.429731" stroke="#111111" stroke-linecap="round" stroke-opacity="0.432338" stroke-width="0.495000" /><polyline class="material-outline stratum-1" fill="none" points="718.942871,565.952530 718.921661,566.832178 718.872389,568.875656" stroke="#111111" stroke-linecap="round" stroke-opacity="0.373185" stroke-width="0.495000" /><polyline class="material-outline stratum-1" fill="none" points="718.161772,610.508989 718.153845,611.147331 718.133890,612.754138" stroke="#111111" stroke-linecap="round" stroke-opacity="0.415074" stroke-width="0.495000" /><polyline class="material-outline stratum-1" fill="none" points="718.054695,619.134242 718.043822,620.011102 718.014294,622.965773 717.999729,624.423210" stroke="#111111" stroke-linecap="round" stroke-opacity="0.443219" stroke-width="0.495000" /><polyline class="material-outline stratum-1" fill="none" points="717.882087,636.195074 717.866657,637.739125 717.840262,640.693820 717.833010,642.012567" stroke="#111111" stroke-linecap="round" stroke-opacity="0.440883" stroke-width="0.495000" /><polyline class="material-outline stratum-1" fill="none" points="717.747295,657.598108 717.742761,658.422460 717.743041,661.377224 717.762387,664.331979 717.771880,665.781809" stroke="#111111" stroke-linecap="round" stroke-opacity="0.471509" stroke-width="0.495000" /><polyline class="material-outline stratum-1" fill="none" points="718.163271,698.996604 718.175689,699.787018 718.307776,702.738772 718.347449,703.577012" stroke="#111111" stroke-linecap="round" stroke-opacity="0.397466" stroke-width="0.495000" /><polyline class="material-outline stratum-1" fill="none" points="677.037862,717.912012 676.367759,717.910432 676.036210,717.909651" stroke="#111111" stroke-linecap="round" stroke-opacity="0.338041" stroke-width="0.495000" /><polyline class="material-outline stratum-1" fill="none" points="659.316585,717.840766 658.639529,717.830407 658.060108,717.812705" stroke="#111111" stroke-linecap="round" stroke-opacity="0.408073" stroke-width="0.495000" /><polyline class="material-outline stratum-1" fill="none" points="619.029209,716.678942 617.289331,716.638722 615.458217,716.597389" stroke="#111111" stroke-linecap="round" stroke-opacity="0.461078" stroke-width="0.495000" /><polyline class="material-outline stratum-1" fill="none" points="596.887781,716.097183 596.614050,716.083653 596.148378,716.060634" stroke="#111111" stroke-linecap="round" stroke-opacity="0.309468" stroke-width="0.495000" /><polyline class="material-outline stratum-1" fill="none" points="591.329963,715.822460 590.711621,715.791895 590.090187,715.761178" stroke="#111111" stroke-linecap="round" stroke-opacity="0.323763" stroke-width="0.495000" /><polyline class="material-outline stratum-1" fill="none" points="547.774315,711.810839 546.595973,711.672625 545.235597,711.513059" stroke="#111111" stroke-linecap="round" stroke-opacity="0.383121" stroke-width="0.495000" /><polyline class="material-outline stratum-1" fill="none" points="527.934062,709.783302 526.017110,709.606134 525.548539,709.562827" stroke="#111111" stroke-linecap="round" stroke-opacity="0.402956" stroke-width="0.495000" /><polyline class="material-outline stratum-1" fill="none" points="513.392354,708.698974 511.280960,708.586762 508.330306,708.429946 507.587165,708.390451" stroke="#111111" stroke-linecap="round" stroke-opacity="0.483005" stroke-width="0.495000" /><polyline class="material-outline stratum-1" fill="none" points="462.145616,710.334699 461.141257,710.385592 460.828360,710.397424" stroke="#111111" stroke-linecap="round" stroke-opacity="0.332719" stroke-width="0.495000" /><polyline class="material-outline stratum-1" fill="none" points="293.223836,718.057658 292.961341,718.085055 292.591075,718.123701" stroke="#111111" stroke-linecap="round" stroke-opacity="0.320255" stroke-width="0.495000" /><polyline class="material-outline stratum-1" fill="none" points="280.829857,716.049988 280.950153,714.051260 281.026386,712.784659" stroke="#111111" stroke-linecap="round" stroke-opacity="0.500000" stroke-width="0.495000" /><polyline class="material-outline stratum-1" fill="none" points="281.331946,707.707779 281.482711,705.202818 281.628632,702.778342" stroke="#111111" stroke-linecap="round" stroke-opacity="0.430331" stroke-width="0.495000" /><polyline class="material-outline stratum-1" fill="none" points="283.222287,668.052920 283.306198,666.839986 283.510126,663.892214 283.593515,662.686823" stroke="#111111" stroke-linecap="round" stroke-opacity="0.491705" stroke-width="0.495000" /><polyline class="material-outline stratum-1" fill="none" points="284.777940,650.376566 284.901994,649.185603 285.083622,647.441925" stroke="#111111" stroke-linecap="round" stroke-opacity="0.500000" stroke-width="0.495000" /><polyline class="material-outline stratum-1" fill="none" points="286.629958,633.174297 286.812518,631.560111 286.971539,630.154055" stroke="#111111" stroke-linecap="round" stroke-opacity="0.438858" stroke-width="0.495000" /><polyline class="material-outline stratum-1" fill="none" points="288.324694,617.983453 288.436789,616.875749 288.734283,613.935945 288.914285,612.157182" stroke="#111111" stroke-linecap="round" stroke-opacity="0.396278" stroke-width="0.495000" /><polyline class="material-outline stratum-1" fill="none" points="291.594016,584.622756 291.602990,584.527527 291.880223,581.585743 291.952591,580.833327" stroke="#111111" stroke-linecap="round" stroke-opacity="0.423495" stroke-width="0.495000" /><polyline class="material-outline stratum-1" fill="none" points="294.287901,557.192923 294.499056,555.121683 294.798736,552.182101 294.934150,550.853809" stroke="#111111" stroke-linecap="round" stroke-opacity="0.500000" stroke-width="0.495000" /><polyline class="material-outline stratum-1" fill="none" points="297.660862,528.332081 298.014552,525.788344 298.376829,523.182846" stroke="#111111" stroke-linecap="round" stroke-opacity="0.401983" stroke-width="0.495000" /><polyline class="material-outline stratum-1" fill="none" points="302.161171,497.088657 302.225894,496.543357 302.453758,494.623574" stroke="#111111" stroke-linecap="round" stroke-opacity="0.306349" stroke-width="0.495000" /><polyline class="material-outline stratum-1" fill="none" points="304.172337,471.536892 304.171023,470.065560 304.168385,467.110743 304.168089,466.779474" stroke="#111111" stroke-linecap="round" stroke-opacity="0.348008" stroke-width="0.495000" /><polyline class="material-outline stratum-1" fill="none" points="304.073462,437.103537 304.077559,434.607973 304.078809,433.846829" stroke="#111111" stroke-linecap="round" stroke-opacity="0.402625" stroke-width="0.495000" /><polyline class="material-outline stratum-1" fill="none" points="303.820395,408.927775 303.797318,408.018491 303.722353,405.064624 303.647387,402.110757 303.566482,399.157062 303.545728,398.516913" stroke="#111111" stroke-linecap="round" stroke-opacity="0.346362" stroke-width="0.495000" /><polyline class="material-outline stratum-1" fill="none" points="302.895985,368.481428 302.888206,366.664253 302.886114,366.175499" stroke="#111111" stroke-linecap="round" stroke-opacity="0.365871" stroke-width="0.495000" /><polyline class="material-outline stratum-1" fill="none" points="302.895579,357.627440 302.937805,354.845636 302.944327,354.415980" stroke="#111111" stroke-linecap="round" stroke-opacity="0.327958" stroke-width="0.495000" /><polyline class="material-outline stratum-1" fill="none" points="303.179148,338.708249 303.199069,337.118661 303.200173,337.030066" stroke="#111111" stroke-linecap="round" stroke-opacity="0.294952" stroke-width="0.495000" /><polyline class="material-outline stratum-1" fill="none" points="290.681271,289.150671 288.978690,287.691247 286.735270,285.768224 284.491850,283.845202 282.248430,281.922179 281.118781,280.953862" stroke="#111111" stroke-linecap="round" stroke-opacity="0.387918" stroke-width="0.495000" /><circle cx="280.016409" cy="281.163306" fill="#111111" opacity="0.400000" r="0.534157" stroke="none" /><circle cx="300.140712" cy="280.239386" fill="#111111" opacity="0.400000" r="0.651988" stroke="none" /><circle cx="317.671311" cy="277.027669" fill="#111111" opacity="0.400000" r="0.350000" stroke="none" /><circle cx="356.804016" cy="266.939920" fill="#111111" opacity="0.400000" r="0.493277" stroke="none" /><circle cx="381.136006" cy="268.350631" fill="#111111" opacity="0.400000" r="0.621055" stroke="none" /><circle cx="398.099852" cy="262.149702" fill="#111111" opacity="0.400000" r="0.578785" stroke="none" /><circle cx="442.665140" cy="255.296188" fill="#111111" opacity="0.400000" r="0.389378" stroke="none" /><circle cx="462.460985" cy="255.689365" fill="#111111" opacity="0.400000" r="0.614387" stroke="none" /><circle cx="479.475402" cy="251.466143" fill="#111111" opacity="0.400000" r="0.448805" stroke="none" /><circle cx="518.904356" cy="256.669819" fill="#111111" opacity="0.400000" r="0.580525" stroke="none" /><circle cx="541.314851" cy="256.436155" fill="#111111" opacity="0.400000" r="0.352218" stroke="none" /><circle cx="563.058366" cy="262.484421" fill="#111111" opacity="0.400000" r="0.507816" stroke="none" /><circle cx="600.231869" cy="266.054236" fill="#111111" opacity="0.400000" r="0.586163" stroke="none" /><circle cx="620.952602" cy="272.313129" fill="#111111" opacity="0.400000" r="0.506561" stroke="none" /><circle cx="641.455765" cy="269.539314" fill="#111111" opacity="0.400000" r="0.555201" stroke="none" /><circle cx="682.931344" cy="276.712817" fill="#111111" opacity="0.400000" r="0.547434" stroke="none" /><circle cx="700.099803" cy="275.671682" fill="#111111" opacity="0.400000" r="0.648024" stroke="none" /><circle cx="720.877536" cy="281.048617" fill="#111111" opacity="0.400000" r="0.519700" stroke="none" /><circle cx="724.371476" cy="321.075020" fill="#111111" opacity="0.400000" r="0.637935" stroke="none" /><circle cx="725.418331" cy="338.380228" fill="#111111" opacity="0.400000" r="0.438491" stroke="none" /><circle cx="724.914075" cy="360.588473" fill="#111111" opacity="0.400000" r="0.459651" stroke="none" /><circle cx="725.998843" cy="401.924911" fill="#111111" opacity="0.400000" r="0.369305" stroke="none" /><circle cx="727.898493" cy="418.649937" fill="#111111" opacity="0.400000" r="0.380965" stroke="none" /><circle cx="725.741592" cy="439.204220" fill="#111111" opacity="0.400000" r="0.444648" stroke="none" /><circle cx="724.798179" cy="479.427154" fill="#111111" opacity="0.400000" r="0.631393" stroke="none" /><circle cx="724.655590" cy="498.807424" fill="#111111" opacity="0.400000" r="0.482414" stroke="none" /><circle cx="720.342822" cy="520.066196" fill="#111111" opacity="0.400000" r="0.354406" stroke="none" /><circle cx="721.209298" cy="562.068538" fill="#111111" opacity="0.400000" r="0.353242" stroke="none" /><circle cx="720.589647" cy="578.331392" fill="#111111" opacity="0.400000" r="0.551369" stroke="none" /><circle cx="716.945550" cy="596.848862" fill="#111111" opacity="0.400000" r="0.369973" stroke="none" /><circle cx="720.038637" cy="641.272384" fill="#111111" opacity="0.400000" r="0.371898" stroke="none" /><circle cx="717.944342" cy="657.117978" fill="#111111" opacity="0.400000" r="0.498423" stroke="none" /><circle cx="716.010357" cy="678.183088" fill="#111111" opacity="0.400000" r="0.524890" stroke="none" /><circle cx="721.424912" cy="718.117709" fill="#111111" opacity="0.400000" r="0.590171" stroke="none" /><circle cx="701.831868" cy="722.511643" fill="#111111" opacity="0.400000" r="0.648805" stroke="none" /><circle cx="677.254190" cy="718.169793" fill="#111111" opacity="0.400000" r="0.374989" stroke="none" /><circle cx="639.399017" cy="716.048931" fill="#111111" opacity="0.400000" r="0.416297" stroke="none" /><circle cx="617.026108" cy="718.094533" fill="#111111" opacity="0.400000" r="0.381055" stroke="none" /><circle cx="597.659188" cy="712.042467" fill="#111111" opacity="0.400000" r="0.561121" stroke="none" /><circle cx="561.794219" cy="711.086443" fill="#111111" opacity="0.400000" r="0.651101" stroke="none" /><circle cx="538.255112" cy="712.636108" fill="#111111" opacity="0.400000" r="0.589082" stroke="none" /><circle cx="517.977403" cy="711.736522" fill="#111111" opacity="0.400000" r="0.574988" stroke="none" /><circle cx="481.340653" cy="707.709293" fill="#111111" opacity="0.400000" r="0.454211" stroke="none" /><circle cx="460.048412" cy="707.749817" fill="#111111" opacity="0.400000" r="0.448952" stroke="none" /><circle cx="441.283844" cy="711.644835" fill="#111111" opacity="0.400000" r="0.503670" stroke="none" /><circle cx="398.390204" cy="711.928153" fill="#111111" opacity="0.400000" r="0.540617" stroke="none" /><circle cx="379.544734" cy="715.712092" fill="#111111" opacity="0.400000" r="0.635480" stroke="none" /><circle cx="359.506266" cy="716.368779" fill="#111111" opacity="0.400000" r="0.403666" stroke="none" /><circle cx="317.939392" cy="719.893733" fill="#111111" opacity="0.400000" r="0.428453" stroke="none" /><circle cx="302.708484" cy="719.899636" fill="#111111" opacity="0.400000" r="0.428746" stroke="none" /><circle cx="281.694580" cy="719.160384" fill="#111111" opacity="0.400000" r="0.574165" stroke="none" /><circle cx="281.348587" cy="677.706174" fill="#111111" opacity="0.400000" r="0.534579" stroke="none" /><circle cx="286.620650" cy="657.162901" fill="#111111" opacity="0.400000" r="0.420611" stroke="none" /><circle cx="284.796932" cy="640.338791" fill="#111111" opacity="0.400000" r="0.603010" stroke="none" /><circle cx="292.867790" cy="598.971631" fill="#111111" opacity="0.400000" r="0.423497" stroke="none" /><circle cx="295.343906" cy="577.921728" fill="#111111" opacity="0.400000" r="0.461522" stroke="none" /><circle cx="295.542489" cy="562.924673" fill="#111111" opacity="0.400000" r="0.601616" stroke="none" /><circle cx="299.863781" cy="520.455083" fill="#111111" opacity="0.400000" r="0.567300" stroke="none" /><circle cx="300.616301" cy="502.061302" fill="#111111" opacity="0.400000" r="0.442654" stroke="none" /><circle cx="303.455332" cy="477.903787" fill="#111111" opacity="0.400000" r="0.608286" stroke="none" /><circle cx="305.454309" cy="443.208129" fill="#111111" opacity="0.400000" r="0.517098" stroke="none" /><circle cx="304.338854" cy="417.143318" fill="#111111" opacity="0.400000" r="0.383338" stroke="none" /><circle cx="301.732287" cy="397.743645" fill="#111111" opacity="0.400000" r="0.571282" stroke="none" /><circle cx="305.811676" cy="357.692931" fill="#111111" opacity="0.400000" r="0.531796" stroke="none" /><circle cx="303.342132" cy="339.850340" fill="#111111" opacity="0.400000" r="0.417586" stroke="none" /><circle cx="300.789640" cy="318.845861" fill="#111111" opacity="0.400000" r="0.449930" stroke="none" /></g><g id="surface_000_000_wash"><path class="surface-stroke-v1" d="M 636.918876 294.923721 L 642.615397 294.627447 L 644.417281 295.300814 L 643.987996 295.788097 L 650.077553 290.844000 L 661.963785 273.957379 L 657.996727 263.471725 L 647.013872 260.566316 L 637.078337 262.966004 L 630.880125 265.076279 Z M 662.394229 299.043466 L 662.047227 305.042747 L 670.981308 304.839942 L 680.500139 285.527858 L 680.448285 275.153838 L 669.237076 279.103627 Z M 680.978532 307.885038 L 682.843781 317.917142 L 692.962242 321.981108 L 704.695636 320.922517 L 712.974653 318.717526 L 716.915514 315.137543 L 718.636333 314.903541 L 721.363667 284.920525 L 711.979906 283.676421 L 703.495295 284.797925 L 699.956566 284.666589 L 700.124490 284.590800 L 700.093998 283.512489 L 691.788047 288.498508 Z" fill="#111111" fill-opacity="0.079200" stroke="none" /><path class="surface-stroke-v1" d="M 446.823176 297.927379 L 460.195413 305.646504 L 471.340680 316.726506 L 488.435012 333.282333 L 508.917174 338.263138 L 524.526119 345.019819 L 541.695747 348.833313 L 559.962891 347.986737 L 569.774618 321.026325 L 556.245274 307.129402 L 540.780699 301.514869 L 524.932604 293.753423 L 512.591632 290.123144 L 500.859897 280.784396 L 482.316277 269.700703 L 464.423209 262.072621 Z M 591.296867 361.513317 L 607.678410 372.952964 L 625.358957 378.008768 L 643.446883 380.009782 L 662.644485 383.268995 L 688.276996 379.861333 L 709.849616 366.675358 L 726.375404 359.417328 L 713.624596 322.864882 L 692.280729 328.817150 L 673.722589 338.618586 L 663.669112 338.978952 L 649.294098 336.867876 L 633.441641 335.088841 L 618.339339 331.359370 L 601.770952 334.736205 Z" fill="#111111" fill-opacity="0.079200" stroke="none" /><path class="surface-stroke-v1" d="M 277.820596 303.631731 L 300.843257 307.727620 L 322.042318 309.001275 L 339.191163 314.497586 L 359.350377 319.664276 L 381.442769 324.627521 L 399.789299 326.790881 L 415.694533 335.762525 L 440.006650 347.667974 L 464.761229 349.680949 L 484.078326 354.039558 L 505.056743 358.519957 L 525.312846 363.285917 L 545.835997 369.062139 L 564.483614 373.778700 L 586.012990 384.259490 L 608.949937 386.524884 L 626.084937 393.151958 L 647.760817 401.022091 L 672.315939 405.325979 L 695.457196 404.996002 L 716.476770 406.473881 L 723.523230 356.692449 L 701.869004 352.129938 L 681.947405 347.441866 L 664.689986 341.981245 L 645.518313 335.914215 L 621.776345 328.731317 L 601.751869 326.200020 L 583.300970 318.993498 L 560.273587 313.350813 L 539.314107 307.935980 L 517.782727 302.829076 L 496.831342 298.052011 L 474.347566 292.595653 L 456.056678 290.175344 L 440.618235 283.400185 L 416.872939 273.258689 L 392.786560 268.340035 L 373.095517 263.412914 L 351.611172 258.084407 L 326.532466 255.610727 L 303.499209 257.583094 L 283.679322 256.368269 Z" fill="#111111" fill-opacity="0.079200" stroke="none" /><path class="surface-stroke-v1" d="M 265.253799 338.921444 L 280.303867 351.395550 L 293.719873 379.809581 L 319.006037 408.725399 L 352.041048 413.117871 L 375.115572 388.962188 L 399.475883 410.023836 L 419.947769 409.883743 L 441.424745 399.671025 L 442.455793 370.482648 L 419.877935 359.875830 L 396.084181 360.253173 L 375.004427 386.910524 L 354.106882 362.002858 L 343.639605 363.612002 L 334.035459 352.505917 L 316.524825 323.758964 L 294.746201 304.592815 Z M 505.193629 409.396592 L 526.410972 419.700735 L 545.197210 421.586815 L 567.591619 428.327214 L 592.203829 427.155131 L 614.341527 428.842351 L 636.940948 426.463069 L 654.659629 427.114561 L 671.995302 430.368204 L 691.656565 436.506212 L 712.453851 443.519265 L 727.546149 403.508203 L 707.739499 395.205324 L 687.007119 385.118083 L 662.735788 377.393099 L 636.966040 375.201334 L 614.771933 375.622097 L 593.576032 373.796565 L 573.751890 373.880087 L 554.542026 369.630051 L 530.166412 367.260740 L 507.692108 375.600345 Z" fill="#111111" fill-opacity="0.079200" stroke="none" /><path class="surface-stroke-v1" d="M 282.489614 378.468856 L 307.991501 375.038316 L 333.329693 364.640601 L 345.035691 361.501211 L 356.366135 376.790179 L 376.531671 389.533062 L 394.689532 404.326611 L 413.810352 417.881968 L 432.009362 432.085539 L 451.573861 447.601964 L 472.464708 459.025544 L 494.151380 471.312582 L 516.274540 476.324532 L 534.763287 484.889043 L 556.754239 495.392768 L 579.036408 498.913386 L 597.939572 505.863633 L 619.569879 513.905292 L 648.888125 518.467437 L 679.870425 503.821375 L 703.663915 483.723146 L 722.723340 480.650257 L 717.276660 449.713629 L 690.316355 454.742941 L 661.312090 472.055381 L 643.007580 479.638510 L 630.116062 475.828395 L 610.979158 469.260128 L 589.077905 461.761329 L 569.066697 457.271234 L 551.195575 449.251180 L 529.762169 439.551701 L 510.419206 432.975849 L 493.170280 422.732990 L 474.996234 412.185747 L 457.046206 399.027501 L 437.627307 385.003425 L 418.742957 372.005674 L 399.578548 357.293221 L 381.300174 345.380122 L 356.477387 326.108115 L 322.186393 330.972604 L 297.911313 344.215716 L 277.510386 348.381822 Z" fill="#111111" fill-opacity="0.079200" stroke="none" /><path class="surface-stroke-v1" d="M 274.443641 422.598654 L 294.189372 429.495664 L 314.439423 440.250045 L 338.822370 447.151140 L 361.692840 447.442255 L 381.932594 450.894459 L 405.507932 454.327162 L 427.198839 452.016666 L 448.788063 457.448709 L 473.009115 453.448090 L 487.408665 453.475796 L 505.822128 476.562174 L 533.859777 466.586156 L 550.399108 473.204069 L 572.143724 478.672952 L 593.181116 483.514933 L 615.458669 488.623159 L 634.717628 489.354667 L 654.518109 493.618294 L 665.645426 468.901518 L 646.154478 452.173872 L 622.276640 448.541649 L 602.740873 443.563368 L 581.929331 438.472845 L 561.936437 433.527417 L 537.484670 426.503500 L 520.030224 422.348166 L 500.689285 417.797096 L 471.549338 415.202365 L 450.231643 417.224154 L 429.794423 413.491248 L 406.574401 414.488445 L 387.311959 412.264453 L 364.852225 409.461984 L 343.796713 408.801840 L 326.385111 405.535260 L 306.646136 398.314809 L 285.556359 390.897217 Z M 695.528529 508.125850 L 713.714543 521.392961 L 726.285457 495.616117 L 704.799819 489.536061 Z" fill="#111111" fill-opacity="0.079200" stroke="none" /><path class="surface-stroke-v1" d="M 282.553496 467.004375 L 310.121390 464.773945 L 337.390945 454.532221 L 356.304448 452.369493 L 375.342044 441.340774 L 371.640838 398.259448 L 345.550775 391.475570 L 317.540547 401.323984 L 295.104931 415.120464 L 277.446504 417.561495 Z M 453.611011 448.346480 L 473.489160 465.508317 L 494.983422 470.488741 L 514.056568 473.678004 L 534.475408 482.488730 L 557.459171 485.738797 L 576.417914 491.101153 L 596.692414 497.045385 L 618.196659 503.745933 L 639.362920 508.077131 L 657.732078 500.783077 L 677.101464 469.372982 L 654.136225 449.921537 L 633.244124 445.225806 L 613.470447 439.524762 L 592.310454 433.744428 L 569.728731 427.840447 L 550.085921 424.520548 L 530.015692 417.518655 L 506.730670 412.977363 L 486.273761 408.467354 L 464.162083 416.305913 Z M 689.243500 539.415011 L 704.759273 563.260487 L 735.240727 524.818590 L 713.451364 519.083977 Z" fill="#111111" fill-opacity="0.079200" stroke="none" /><path class="surface-stroke-v1" d="M 266.594343 493.629835 L 281.792059 506.494534 L 295.171951 535.505230 L 321.932301 562.490909 L 354.294903 563.572032 L 376.458074 563.455980 L 398.647473 555.374324 L 397.889848 523.067153 L 375.676073 516.097634 L 353.612010 516.332947 L 341.613728 518.343344 L 332.695138 508.717193 L 315.065342 480.926009 L 293.405657 462.274594 Z M 439.342706 560.674456 L 463.857438 569.514698 L 485.450969 567.750018 L 504.219867 569.399380 L 526.062918 573.804995 L 548.441503 574.161541 L 570.543389 577.610144 L 594.828828 576.258507 L 616.389027 575.036867 L 635.610183 574.759137 L 652.197032 578.587904 L 669.982642 585.131894 L 691.455092 593.796201 L 714.089276 599.504474 L 725.910724 559.913163 L 707.250428 553.291444 L 689.029290 542.703434 L 666.520684 532.592250 L 641.041311 527.428067 L 616.319181 526.273900 L 593.501459 526.055205 L 573.329675 526.049414 L 552.686626 523.439861 L 531.194689 522.605332 L 510.616538 519.552955 L 486.059464 517.656583 L 462.934352 518.368140 L 443.505715 526.332304 Z" fill="#111111" fill-opacity="0.079200" stroke="none" /><path class="surface-stroke-v1" d="M 285.768149 539.671942 L 314.344651 532.451274 L 344.095924 512.723306 L 360.950157 503.276840 L 369.912490 507.594281 L 391.589985 502.836147 L 402.891768 474.961911 L 383.477177 456.998623 L 350.394331 452.232133 L 316.567181 471.045053 L 292.789562 491.889227 L 274.231851 497.589827 Z M 433.912115 521.135496 L 452.734891 534.049459 L 467.045069 539.843095 L 482.780282 565.775219 L 513.571048 560.386894 L 538.306888 557.191331 L 542.615508 518.248758 L 525.399287 505.566610 L 514.046424 491.520053 L 491.468021 492.232799 L 465.163413 482.757417 L 440.994149 490.681713 Z M 580.214286 561.273285 L 600.834088 571.580121 L 622.421782 575.719697 L 642.866111 576.820647 L 652.147151 577.720625 L 663.978701 594.474403 L 683.549090 622.388154 L 706.778888 639.150054 L 733.221112 601.624923 L 718.490956 591.638198 L 706.103231 566.851102 L 684.620579 536.767819 L 652.605911 525.343113 L 629.755381 522.763800 L 609.085935 518.735969 L 586.748286 523.903577 Z" fill="#111111" fill-opacity="0.079200" stroke="none" /><path class="surface-stroke-v1" d="M 279.158541 573.621314 L 302.176352 574.744353 L 324.951780 573.977997 L 342.723939 575.267470 L 360.477314 582.841263 L 384.037074 581.052698 L 390.586061 559.416470 L 372.789546 545.565119 L 349.872932 538.108596 L 323.784168 538.165489 L 301.457785 541.532205 L 280.841459 540.442035 Z M 426.256274 593.374450 L 445.579912 604.399014 L 465.957994 610.736796 L 487.704355 614.456192 L 506.261022 618.773938 L 524.680661 628.645071 L 544.816838 636.610403 L 566.235451 640.882708 L 578.791968 615.944288 L 560.562825 600.766096 L 540.197349 592.973222 L 518.896741 583.707310 L 495.673351 577.794722 L 475.133766 573.471270 L 454.262640 567.283305 L 431.075088 571.238983 Z M 606.424496 660.874617 L 625.677933 675.646791 L 651.370617 673.277394 L 654.861075 650.051792 L 638.944980 636.711446 L 617.964645 634.567082 Z M 698.749284 669.276410 L 720.157047 676.067797 L 719.842953 641.508759 L 697.011755 648.702218 Z" fill="#111111" fill-opacity="0.079200" stroke="none" /><path class="surface-stroke-v1" d="M 284.690896 614.344886 L 314.421029 608.831886 L 343.996860 588.690293 L 353.821284 584.589946 L 361.108905 594.617556 L 388.764239 590.704434 L 400.074451 558.455143 L 386.947184 539.998641 L 355.432325 526.920741 L 316.334035 543.475222 L 291.989437 565.598791 L 275.309104 569.877548 Z M 429.121601 604.170042 L 449.145163 626.719366 L 474.951237 625.210183 L 491.840187 627.736458 L 507.568523 632.499615 L 527.834812 646.141980 L 548.919349 649.120135 L 565.223587 661.511434 L 588.323347 671.271048 L 608.399354 678.249783 L 628.915175 687.778114 L 650.474204 693.943738 L 670.182003 699.680158 L 691.772049 708.526380 L 714.373794 714.618507 L 725.626206 673.117135 L 706.686761 667.946055 L 688.442786 658.147201 L 667.841613 647.292250 L 648.416608 639.785498 L 629.208832 630.191275 L 608.753127 621.541773 L 591.753290 613.804670 L 569.926171 600.188500 L 548.824398 594.692975 L 530.597104 583.894145 L 505.245904 575.397885 L 479.859938 569.833621 L 461.422590 568.745800 L 441.519952 573.048631 Z" fill="#111111" fill-opacity="0.079200" stroke="none" /><path class="surface-stroke-v1" d="M 265.698756 648.343750 L 281.111792 666.430450 L 296.609613 700.379391 L 325.059140 720.318309 L 352.362986 725.924146 L 374.654344 717.806072 L 380.008479 691.017614 L 357.620517 680.164001 L 341.325397 678.362798 L 330.206902 673.464706 L 314.949991 644.467578 L 294.301244 622.556134 Z M 418.346054 728.957732 L 440.158980 742.793551 L 464.939242 742.246570 L 486.998464 741.135082 L 509.059159 742.849426 L 531.660293 734.266261 L 533.402168 703.891928 L 510.708007 695.236727 L 488.160111 693.909697 L 464.716626 693.623031 L 444.279631 692.666575 L 422.376611 699.601181 Z M 577.905930 737.395490 L 601.310414 743.297234 L 622.806699 742.410445 L 645.473440 740.252290 L 645.722847 699.747710 L 623.142067 697.310943 L 599.417545 696.030027 L 576.571789 705.988960 Z" fill="#111111" fill-opacity="0.079200" stroke="none" /><path class="surface-stroke-v1" d="M 266.696575 686.285733 L 274.227954 698.229071 L 286.700990 720.683160 L 312.844753 723.849025 L 327.299995 722.598402 L 337.906559 720.354224 L 348.982924 723.533201 L 362.569159 722.503801 L 376.075053 724.229544 L 393.138727 720.542149 L 404.338545 716.345701 L 413.799401 709.620101 L 414.409040 681.746090 L 398.782108 674.437278 L 383.028687 677.723913 L 373.686592 679.152313 L 362.527111 678.468314 L 350.322250 679.896836 L 337.099929 679.080490 L 321.330817 681.821985 L 309.948766 683.229040 L 310.638810 687.394001 L 305.313111 677.746692 L 293.303425 665.122547 Z M 439.809455 708.081179 L 441.947972 713.116239 L 448.596132 717.782583 L 458.945311 729.383452 L 484.129153 710.616548 L 475.229402 696.386731 L 461.957081 678.126201 L 439.462878 680.610315 Z" fill="#111111" fill-opacity="0.079200" stroke="none" /><path class="surface-stroke-v1" d="M 254.555013 720.373567 L 260.012153 735.315797 L 271.976721 733.939880 L 294.564124 698.972462 L 302.316741 697.963708 L 305.444987 705.130681 Z M 299.560612 734.889381 L 314.533117 733.143995 L 317.802346 723.936144 L 316.511301 721.184497 L 274.452862 711.887773 L 272.772826 719.295467 L 278.297802 725.343969 L 284.309932 723.335041 L 319.905620 707.279689 L 324.056978 695.471325 L 325.347800 701.983001 L 323.053173 694.202717 L 276.562624 686.225130 L 268.484785 694.974381 L 264.924491 697.452188 L 274.562428 700.928214 Z M 315.769455 730.275787 L 292.416085 736.251011 L 287.677029 726.053570 L 289.148062 726.385304 L 333.532200 713.614696 L 332.715212 705.994435 L 324.831190 691.550466 L 297.554151 696.646317 Z" fill="#111111" fill-opacity="0.079200" stroke="none" /><path class="surface-stroke-v1" d="M 646.572464 291.000242 L 645.426562 293.087901 L 659.795929 301.276495 L 670.780390 277.774408 L 680.838274 274.175810 L 673.829470 268.999758 Z M 666.502311 304.104660 L 658.450040 304.367969 L 655.735864 311.963828 L 674.511494 324.637174 L 693.452495 327.383543 L 706.084314 317.600419 L 702.730404 317.812760 L 695.092244 318.291085 L 704.409393 320.564921 L 719.525139 316.330278 L 710.696837 312.975971 L 700.628432 306.749748 L 704.799863 312.127148 L 735.200137 288.891417 L 733.605011 286.724191 L 718.625430 270.459306 L 699.004414 274.215168 L 704.852190 272.644990 L 706.781817 272.100458 L 691.157299 271.506446 L 677.515020 277.358435 L 678.349289 277.615285 L 690.438516 275.981203 L 701.044108 288.117767 L 696.383880 277.029530 L 678.956871 280.268611 Z" fill="#111111" fill-opacity="0.079200" stroke="none" /><path class="surface-stroke-v1" d="M 513.758892 290.492100 L 519.064798 303.090284 L 522.500724 332.302569 L 548.260445 352.243830 L 572.120430 356.002403 L 586.244908 349.886073 L 590.727800 350.914592 L 602.489425 343.241083 L 614.527709 316.912846 L 602.957834 302.089917 L 583.284803 298.372789 L 568.961409 300.024875 L 568.684407 298.982592 L 573.007754 306.248799 L 566.906442 288.091655 L 557.123284 269.507900 Z M 631.966364 352.496721 L 646.924395 359.093266 L 653.190918 360.049399 L 663.400093 356.522273 L 675.184884 325.061647 L 662.842724 312.110367 L 643.424312 312.779004 L 631.128065 323.663793 Z M 708.217641 350.721100 L 711.900120 362.295910 L 728.099880 324.300480 L 709.288130 326.284633 Z" fill="#111111" fill-opacity="0.079200" stroke="none" /><path class="surface-stroke-v1" d="M 394.136824 290.893439 L 408.562787 306.687984 L 421.794560 329.085906 L 440.753442 350.980083 L 464.114720 360.824679 L 486.215152 362.135155 L 495.456704 338.322797 L 478.778386 324.331379 L 463.529778 318.381721 L 450.066414 306.440308 L 434.065977 285.701432 L 415.573700 269.106561 Z M 565.102917 395.792656 L 586.394988 405.895464 L 608.572380 405.612753 L 627.535773 407.450759 L 648.097154 414.170628 L 675.433134 414.689373 L 700.652224 404.701689 L 720.764232 402.243264 L 719.235768 373.927203 L 694.490486 373.890117 L 670.029058 380.386886 L 653.962387 379.085668 L 634.647535 373.703579 L 611.368695 370.338188 L 590.065291 368.463364 L 569.649289 371.805322 Z" fill="#111111" fill-opacity="0.079200" stroke="none" /><path class="surface-stroke-v1" d="M 276.737896 299.433859 L 298.961870 304.299349 L 319.809221 306.706907 L 334.458316 312.412280 L 349.917196 322.147625 L 366.293044 332.097089 L 382.199588 347.552397 L 415.367411 341.217434 L 421.727475 372.854188 L 440.260223 384.433757 L 459.752249 395.000225 L 478.612880 405.367502 L 497.841551 416.035793 L 518.036342 426.309819 L 540.630318 435.791060 L 564.349817 440.473149 L 585.239450 443.707800 L 607.026553 448.503943 L 632.111224 450.055134 L 656.017356 447.574753 L 677.012941 445.080969 L 696.031122 445.297213 L 715.197894 449.308697 L 724.802106 413.349174 L 703.015172 406.422580 L 678.766177 402.446140 L 654.862132 400.519430 L 633.498383 399.685668 L 615.279258 397.150949 L 595.630486 392.414876 L 574.354329 388.245528 L 556.341288 384.260390 L 539.721783 377.729565 L 521.590755 369.403367 L 503.029986 359.907510 L 484.178223 349.885995 L 465.975004 340.013670 L 447.604000 328.846686 L 416.462630 339.479553 L 413.612222 307.816116 L 395.197643 292.994685 L 374.567499 280.495700 L 352.708092 268.693148 L 326.462669 263.287869 L 303.258678 263.789144 L 283.262104 261.410293 Z" fill="#111111" fill-opacity="0.079200" stroke="none" /><path class="surface-stroke-v1" d="M 269.663632 333.803638 L 285.805723 345.586426 L 301.250147 364.672241 L 327.574771 381.973931 L 357.765937 380.942142 L 380.917753 377.821900 L 403.505303 376.910328 L 426.152923 374.411125 L 448.081584 374.896151 L 471.514447 373.260750 L 494.664505 371.912156 L 515.428343 368.687342 L 531.850563 372.199149 L 552.100047 379.237326 L 573.823715 382.325530 L 590.720186 386.658686 L 609.041980 397.624394 L 630.989430 403.802730 L 649.111392 410.452100 L 661.833428 414.712622 L 673.665034 432.462857 L 688.322344 462.506359 L 707.968105 481.665282 L 732.031895 457.693858 L 718.422119 443.469104 L 708.361779 415.234967 L 692.028617 384.758343 L 666.475362 370.271316 L 645.003557 362.017424 L 626.358103 356.205687 L 607.075074 346.468958 L 583.116630 339.575991 L 562.488416 335.802784 L 542.457740 329.939018 L 516.836621 325.689796 L 491.226719 327.330128 L 468.911372 328.198241 L 446.592162 329.615389 L 423.842439 330.022398 L 400.132997 332.339711 L 377.285333 333.556819 L 353.872816 335.857439 L 338.489253 337.361111 L 327.899743 331.946520 L 310.367833 316.834585 L 290.336368 303.741783 Z" fill="#111111" fill-opacity="0.079200" stroke="none" /><path class="surface-stroke-v1" d="M 279.617331 377.756873 L 304.536355 378.875379 L 329.503169 373.232756 L 342.090605 374.767422 L 353.950912 386.399319 L 371.996260 399.624760 L 389.315266 412.532373 L 408.148524 428.360242 L 428.878440 437.403681 L 445.179963 447.890076 L 463.232298 464.184676 L 483.121834 472.784828 L 499.380208 487.538727 L 519.811882 499.639735 L 539.215516 509.688290 L 558.855956 520.067315 L 580.463006 528.821008 L 601.359208 533.818839 L 622.360057 541.627538 L 649.598676 544.199059 L 677.650497 536.489186 L 700.566686 525.865818 L 718.870377 526.695775 L 721.129623 498.725355 L 695.933239 496.041695 L 667.906993 503.604443 L 647.377407 507.196624 L 631.907621 503.946250 L 613.355188 496.733643 L 593.323085 490.719334 L 575.724417 483.438328 L 557.355981 474.293018 L 538.724853 464.892710 L 521.846410 455.432007 L 503.309154 441.292689 L 484.698386 431.801363 L 468.402572 417.898023 L 448.403403 403.879519 L 430.909969 394.023964 L 415.118589 380.460052 L 396.987727 366.382014 L 379.400577 353.154300 L 356.076155 337.027479 L 324.520367 336.923760 L 299.804005 345.795625 L 280.382669 345.850538 Z" fill="#111111" fill-opacity="0.079200" stroke="none" /><path class="surface-stroke-v1" d="M 265.548027 423.130568 L 282.987354 436.537595 L 302.438918 451.758286 L 327.627986 455.077622 L 341.977167 423.540846 L 328.669071 408.759548 L 312.677288 396.975575 L 294.451973 384.023169 Z M 369.214134 471.490543 L 391.522133 471.359653 L 409.051172 483.532654 L 425.732488 497.252506 L 446.179728 505.509254 L 466.435904 511.444754 L 487.314611 519.913157 L 510.986336 523.802030 L 530.682110 526.503085 L 550.608893 533.839880 L 576.124940 527.392042 L 579.415851 498.545518 L 562.664739 484.989240 L 542.425660 479.090836 L 519.877736 474.615048 L 501.602513 470.461845 L 483.079086 463.468243 L 462.833823 457.146982 L 443.816640 450.123343 L 420.950300 448.805485 L 398.019038 448.601784 L 379.350606 437.599076 Z M 620.127491 529.138885 L 637.912595 542.402645 L 655.785570 547.116002 L 672.844908 552.959283 L 690.916392 560.677902 L 709.116868 571.505250 L 730.883132 537.462206 L 712.418606 524.846876 L 693.005933 511.511230 L 670.922535 501.136177 L 647.598977 495.619469 L 623.098516 501.828458 Z" fill="#111111" fill-opacity="0.079200" stroke="none" /><path class="surface-stroke-v1" d="M 276.721232 465.581705 L 298.753530 463.027009 L 303.422780 437.999825 L 283.278768 428.071805 Z M 335.585375 478.220361 L 352.495254 492.836465 L 370.194262 501.440121 L 388.321731 510.058524 L 418.061168 500.173587 L 429.836997 529.459685 L 452.757438 530.414668 L 463.548623 497.478529 L 447.171150 482.667632 L 418.913898 498.331380 L 411.525825 466.352299 L 391.143120 456.908006 L 370.363441 447.357154 L 346.958947 449.171072 Z M 490.181592 544.795458 L 508.726462 560.842034 L 528.350029 566.104269 L 546.166185 575.892712 L 569.105010 575.807590 L 583.014517 546.605141 L 566.608667 530.890480 L 546.411303 521.168126 L 525.470169 514.358057 L 505.000599 513.812224 Z M 608.512504 595.918583 L 626.721322 610.061852 L 650.762377 618.057534 L 677.379137 615.180803 L 696.855709 613.369405 L 715.320570 617.182352 L 724.679430 578.284876 L 701.846993 572.161558 L 676.776729 569.888588 L 658.120315 568.668077 L 642.370603 562.334892 L 619.998297 564.453742 Z" fill="#111111" fill-opacity="0.079200" stroke="none" /><path class="surface-stroke-v1" d="M 281.644627 504.835833 L 306.731335 501.849397 L 333.102874 493.701957 L 349.513114 489.414680 L 360.383979 499.645935 L 376.933017 513.501190 L 393.164031 529.230007 L 409.415644 545.891011 L 425.610011 563.095943 L 442.034780 580.734575 L 460.209299 598.456239 L 480.534528 610.693987 L 498.714394 621.333556 L 517.084221 634.800400 L 535.875646 643.565199 L 553.643961 659.148247 L 575.509590 666.515526 L 596.015342 677.426040 L 619.102823 672.981602 L 626.934019 653.162461 L 607.471336 642.434748 L 590.143063 633.311109 L 572.172309 626.482525 L 554.927647 613.806078 L 535.419209 603.894970 L 517.795215 591.962170 L 498.850022 580.500449 L 482.288041 569.943414 L 466.701928 555.754110 L 450.096869 539.350965 L 433.271555 522.484536 L 416.291203 505.693137 L 398.880384 489.164604 L 380.782610 473.692732 L 355.874467 457.898011 L 324.442169 462.758460 L 299.751819 473.145429 L 278.355373 475.343157 Z M 699.941503 656.018624 L 723.460761 656.725021 L 716.539239 625.267688 L 691.704394 636.613386 Z" fill="#111111" fill-opacity="0.079200" stroke="none" /><path class="surface-stroke-v1" d="M 283.957826 553.674743 L 313.766472 548.798309 L 347.172543 528.286967 L 366.262472 508.088999 L 356.616487 472.260778 L 319.441960 485.766374 L 293.941399 506.662403 L 276.042174 510.541048 Z M 395.161078 517.119048 L 409.848106 533.395361 L 427.700350 542.308999 L 445.777326 555.824856 L 468.945285 566.072099 L 488.282423 570.964209 L 507.075618 582.304230 L 529.041651 587.583955 L 546.562879 595.553448 L 568.265379 605.226010 L 589.660287 609.095971 L 604.106797 627.294969 L 628.996953 623.542427 L 647.736399 629.309040 L 658.590773 632.404279 L 669.062281 651.267579 L 684.957557 680.955765 L 706.157344 699.237791 L 733.842656 666.791719 L 720.458251 655.564036 L 710.505504 630.270417 L 693.507469 598.879785 L 665.953530 583.615331 L 644.445951 576.383390 L 629.203849 559.297665 L 604.418730 561.537513 L 584.235652 556.289612 L 567.105964 548.838375 L 545.766849 539.766156 L 526.759796 534.164311 L 508.112433 524.322946 L 486.858243 517.220387 L 471.195405 510.339775 L 453.073112 499.055011 L 432.689627 489.105748 L 409.640102 485.063710 Z" fill="#111111" fill-opacity="0.079200" stroke="none" /><path class="surface-stroke-v1" d="M 285.081336 588.368401 L 310.271839 573.259110 L 298.837714 552.781959 L 274.918664 551.044306 Z M 364.630607 538.406942 L 373.073618 550.153454 L 388.075979 561.931011 L 406.655363 571.812384 L 421.327333 583.913046 L 437.143896 602.852004 L 454.705713 615.645254 L 472.724392 646.450769 L 501.773799 637.292474 L 513.499406 649.375732 L 532.458796 659.796701 L 548.666646 672.945006 L 571.642262 679.189851 L 588.508633 657.619956 L 576.100805 637.215144 L 557.206743 622.892929 L 538.872045 612.235117 L 515.748065 596.112149 L 499.883364 588.092807 L 486.025941 582.022288 L 467.977513 568.827168 L 451.471166 552.192851 L 431.307725 536.045958 L 412.701103 524.533413 L 392.247581 509.872523 L 359.596709 511.619338 Z M 609.219686 705.218030 L 622.503967 722.122735 L 643.870640 738.307802 L 674.428169 740.234252 L 697.173289 734.270482 L 715.345434 736.074859 L 721.078669 703.925141 L 697.293510 698.247303 L 673.050780 699.468908 L 660.505193 697.253996 L 646.792820 685.901869 L 622.759516 681.796305 Z" fill="#111111" fill-opacity="0.079200" stroke="none" /><path class="surface-stroke-v1" d="M 285.153093 629.217906 L 312.894980 623.449671 L 335.856055 611.836444 L 343.154130 620.360274 L 361.596778 626.306274 L 381.217837 637.926514 L 399.152248 640.643374 L 412.593946 655.889589 L 438.860326 668.624167 L 464.288353 660.111494 L 472.472315 628.263646 L 455.929218 612.698471 L 443.799461 607.956933 L 423.062245 593.430853 L 399.534023 587.612602 L 381.692072 579.036004 L 360.114999 572.239783 L 328.227701 565.588677 L 296.270750 584.672304 L 274.846907 592.828921 Z M 502.581054 669.458891 L 511.836934 690.332078 L 532.133830 702.718237 L 548.779824 708.404518 L 565.411834 723.645094 L 586.204313 736.914934 L 609.283012 703.085066 L 594.102344 691.814065 L 578.891690 670.470528 L 557.598503 657.348345 L 541.385961 646.757333 L 515.123384 641.763935 Z" fill="#111111" fill-opacity="0.079200" stroke="none" /><path class="surface-stroke-v1" d="M 262.766905 666.196236 L 268.241615 676.675076 L 273.199152 700.851003 L 299.613441 721.527963 L 322.200319 721.071591 L 340.117002 720.295248 L 355.485670 713.307055 L 364.221792 713.298895 L 369.845686 711.866934 L 382.904867 720.595837 L 402.487440 717.431329 L 413.833201 719.114625 L 427.830804 716.899360 L 430.202131 715.471989 L 433.881244 721.341253 L 447.677972 731.802998 L 462.815155 738.169568 L 483.273930 701.830432 L 475.806787 695.470865 L 469.587012 685.661141 L 453.126770 671.617141 L 429.899507 666.194028 L 416.302001 665.804282 L 402.148149 663.203244 L 393.176320 664.661271 L 384.047668 659.449671 L 362.507391 658.586735 L 343.883696 659.718054 L 328.347876 664.204557 L 319.048491 664.148556 L 313.869290 666.016203 L 318.477797 671.638708 L 310.024310 656.283536 L 297.233095 641.386738 Z" fill="#111111" fill-opacity="0.079200" stroke="none" /><path class="surface-stroke-v1" d="M 275.778676 717.212050 L 276.453980 718.026107 L 278.359829 712.272120 L 297.248963 690.408518 L 291.807339 680.158039 L 284.221324 679.140107 Z M 289.467860 724.320781 L 304.131053 723.617393 L 300.875419 697.026512 L 306.500429 696.756243 Z M 304.227154 721.658868 L 297.220577 728.313485 L 300.380693 734.629119 L 313.171521 743.621064 L 319.188337 744.338754 L 329.746297 747.379645 L 342.701477 742.602830 L 342.060119 739.858315 L 340.212282 739.054276 L 347.051987 700.945724 L 336.829994 698.638696 L 325.974608 699.755720 L 328.616078 699.131087 L 331.564479 698.439647 L 328.916589 698.501510 L 334.493293 702.608154 L 331.845985 699.936963 L 318.112949 700.284394 Z" fill="#111111" fill-opacity="0.079200" stroke="none" /></g></g></g><g id="layer_20_presence" /></g></svg>