<svg baseProfile="full" height="1000" version="1.1" viewBox="0 0 1000 1000" width="1000" xmlns="http://www.w3.org/2000/svg" xmlns:ev="http://www.w3.org/2001/xml-events" xmlns:xlink="http://www.w3.org/1999/xlink"><title>inku render (editable SVG)</title><desc>Generated by inku. Groups and IDs are included for vector editing.</desc><metadata id="inku_metadata">{"generator":"inku","svg_profile":"editable"}</metadata><defs /><g id="inku_artboard"><g id="layer_00_background"><rect fill="#ffffff" height="1000" id="background" width="1000" x="0" y="0" /></g><g id="layer_10_content"><g id="instruction_000_square_black_pencil"><g id="mark_000_000_square"><rect fill="none" height="440.000000" stroke="none" width="440.000000" x="280.000000" y="280.000000" /><g class="contour-stroke-v1 controls-88 events-0"><path d="M 280.522945 280.526758 L 299.999048 280.793682 L 320.000148 280.795869 L 340.000446 280.782716 L 360.000411 280.762680 L 380.000193 280.751932 L 400.000024 280.748139 L 419.999661 280.750118 L 439.999784 280.773610 L 460.000184 280.766195 L 479.999669 280.759838 L 500.000153 280.796435 L 520.000410 280.760571 L 539.999518 280.778246 L 560.000149 280.806270 L 580.001590 280.779653 L 600.001570 280.709098 L 620.000751 280.683241 L 640.000150 280.670045 L 659.999683 280.685369 L 679.999505 280.703371 L 699.998749 280.729562 L 719.445711 280.555180 L 719.300082 300.001778 L 719.308380 320.000276 L 719.307473 340.000252 L 719.314433 359.999679 L 719.278066 379.999498 L 719.274578 400.000603 L 719.306527 420.001885 L 719.381816 440.001348 L 719.382263 460.000040 L 719.376941 480.000668 L 719.416221 500.001257 L 719.447705 520.000618 L 719.448352 539.999817 L 719.431185 559.999088 L 719.388211 579.999819 L 719.416178 600.000495 L 719.414490 619.999648 L 719.392062 640.000650 L 719.450860 660.001141 L 719.459082 679.999705 L 719.431858 699.994773 L 719.426565 719.427040 L 699.994249 719.452098 L 679.999533 719.491982 L 660.002268 719.481716 L 640.001890 719.356052 L 619.999402 719.372193 L 599.999244 719.394552 L 579.998909 719.421031 L 559.999202 719.464703 L 540.000222 719.474720 L 520.000569 719.456400 L 500.000000 719.445610 L 479.999390 719.462966 L 459.999598 719.490736 L 439.999918 719.496074 L 420.000814 719.504298 L 400.001298 719.452679 L 380.000905 719.430826 L 359.999526 719.404415 L 339.998987 719.471431 L 319.999986 719.481643 L 300.004282 719.483831 L 280.523563 719.476986 L 280.530328 699.996236 L 280.526102 680.000021 L 280.518439 660.000653 L 280.558414 640.001060 L 280.579127 620.000627 L 280.588789 600.000352 L 280.590050 580.000741 L 280.628420 560.000814 L 280.634977 540.000235 L 280.631260 520.000279 L 280.641408 500.000333 L 280.642024 480.000137 L 280.644756 459.999851 L 280.630358 439.999496 L 280.605024 419.999287 L 280.573644 399.999579 L 280.571089 380.000074 L 280.579597 359.999817 L 280.556404 339.999745 L 280.558949 320.000456 L 280.593359 300.002082 Z M 279.477055 279.473242 L 300.000952 279.305502 L 319.999852 279.306490 L 339.999554 279.300542 L 359.999589 279.291482 L 379.999807 279.286622 L 399.999976 279.284906 L 420.000339 279.285801 L 440.000216 279.296424 L 459.999816 279.293071 L 480.000331 279.290197 L 499.999847 279.298854 L 519.999590 279.273092 L 540.000482 279.272982 L 559.999851 279.278647 L 579.998410 279.256003 L 599.998430 279.208873 L 619.999249 279.184955 L 639.999850 279.167774 L 660.000317 279.166829 L 680.000495 279.167895 L 700.001251 279.174263 L 720.554289 279.444820 L 720.860555 299.998222 L 720.873906 319.999724 L 720.881420 339.999748 L 720.893477 360.000321 L 720.878313 380.000502 L 720.883098 399.999397 L 720.909850 419.998115 L 720.963954 439.998652 L 720.970475 459.999960 L 720.972885 479.999332 L 721.003513 499.998743 L 721.028866 519.999382 L 721.033936 540.000183 L 721.026971 560.000912 L 721.002678 580.000181 L 721.024060 599.999505 L 721.025656 620.000352 L 721.013192 639.999350 L 721.053422 659.998859 L 721.060068 680.000295 L 721.042936 700.005227 L 720.573435 720.572960 L 700.005751 721.056208 L 680.000467 721.081640 L 659.997732 721.073634 L 639.998110 720.989622 L 620.000598 720.998016 L 600.000756 721.009953 L 580.001091 721.024039 L 560.000798 721.048733 L 539.999778 721.051005 L 519.999431 721.034476 L 500.000000 721.022408 L 480.000610 721.027958 L 460.000402 721.039598 L 440.000082 721.036396 L 419.999186 721.034535 L 399.998702 720.994684 L 379.999095 720.973372 L 360.000474 720.949053 L 340.001013 720.981859 L 320.000014 720.979094 L 299.995718 720.970997 L 279.476437 720.523014 L 279.057203 700.003764 L 279.065083 679.999979 L 279.071402 659.999347 L 279.104970 639.998940 L 279.127404 619.999373 L 279.143661 599.999648 L 279.155459 579.999259 L 279.186622 559.999186 L 279.200869 539.999765 L 279.210007 519.999721 L 279.225872 499.999667 L 279.236922 479.999863 L 279.238157 460.000149 L 279.231647 440.000504 L 279.220191 420.000713 L 279.206001 400.000421 L 279.204845 379.999926 L 279.208693 360.000183 L 279.198205 340.000255 L 279.199356 319.999544 L 279.214920 299.997918 Z" fill="#111111" fill-opacity="0.660000" fill-rule="evenodd" stroke="none" /></g><rect class="material-outline" fill="none" height="433.000000" stroke="#111111" stroke-dasharray="1.000000,7.000000" stroke-linecap="round" stroke-opacity="0.500000" stroke-width="0.450000" width="433.000000" x="283.500000" y="283.500000" /><rect class="material-outline" fill="none" height="447.000000" stroke="#111111" stroke-dasharray="1.000000,5.000000" stroke-linecap="round" stroke-opacity="0.500000" stroke-width="0.500000" width="447.000000" x="276.500000" y="276.500000" /><circle cx="294.137855" cy="277.843343" fill="#111111" opacity="0.400000" r="0.492269" stroke="none" /><circle cx="317.715643" cy="279.511257" fill="#111111" opacity="0.400000" r="0.538746" stroke="none" /><circle cx="349.628736" cy="280.150407" fill="#111111" opacity="0.400000" r="0.576601" stroke="none" /><circle cx="372.026224" cy="281.951355" fill="#111111" opacity="0.400000" r="0.407992" stroke="none" /><circle cx="398.387623" cy="276.961876" fill="#111111" opacity="0.400000" r="0.400179" stroke="none" /><circle cx="429.733181" cy="279.602701" fill="#111111" opacity="0.400000" r="0.608447" stroke="none" /><circle cx="454.638887" cy="282.168800" fill="#111111" opacity="0.400000" r="0.353514" stroke="none" /><circle cx="481.719200" cy="276.803333" fill="#111111" opacity="0.400000" r="0.628570" stroke="none" /><circle cx="506.211404" cy="281.192636" fill="#111111" opacity="0.400000" r="0.430991" stroke="none" /><circle cx="534.507561" cy="278.617038" fill="#111111" opacity="0.400000" r="0.599345" stroke="none" /><circle cx="562.267968" cy="279.154901" fill="#111111" opacity="0.400000" r="0.492868" stroke="none" /><circle cx="588.595195" cy="280.247739" fill="#111111" opacity="0.400000" r="0.350000" stroke="none" /><circle cx="615.814866" cy="279.502862" fill="#111111" opacity="0.400000" r="0.379854" stroke="none" /><circle cx="642.081036" cy="277.140816" fill="#111111" opacity="0.400000" r="0.421702" stroke="none" /><circle cx="665.829004" cy="277.114678" fill="#111111" opacity="0.400000" r="0.496032" stroke="none" /><circle cx="695.241205" cy="281.689736" fill="#111111" opacity="0.400000" r="0.592872" stroke="none" /><circle cx="722.017232" cy="280.012965" fill="#111111" opacity="0.400000" r="0.405509" stroke="none" /><circle cx="719.840063" cy="303.543053" fill="#111111" opacity="0.400000" r="0.375832" stroke="none" /><circle cx="719.620109" cy="334.498048" fill="#111111" opacity="0.400000" r="0.561729" stroke="none" /><circle cx="720.905359" cy="361.022033" fill="#111111" opacity="0.400000" r="0.519776" stroke="none" /><circle cx="719.562965" cy="389.089823" fill="#111111" opacity="0.400000" r="0.494695" stroke="none" /><circle cx="721.276298" cy="416.395591" fill="#111111" opacity="0.400000" r="0.626314" stroke="none" /><circle cx="719.917082" cy="442.225732" fill="#111111" opacity="0.400000" r="0.584095" stroke="none" /><circle cx="722.680990" cy="466.342989" fill="#111111" opacity="0.400000" r="0.513132" stroke="none" /><circle cx="720.656930" cy="491.233216" fill="#111111" opacity="0.400000" r="0.607223" stroke="none" /><circle cx="720.406813" cy="521.756766" fill="#111111" opacity="0.400000" r="0.406279" stroke="none" /><circle cx="722.351944" cy="543.939654" fill="#111111" opacity="0.400000" r="0.550011" stroke="none" /><circle cx="717.699366" cy="573.020995" fill="#111111" opacity="0.400000" r="0.572867" stroke="none" /><circle cx="720.615977" cy="601.975788" fill="#111111" opacity="0.400000" r="0.374398" stroke="none" /><circle cx="718.052430" cy="625.958961" fill="#111111" opacity="0.400000" r="0.438597" stroke="none" /><circle cx="717.360206" cy="654.601741" fill="#111111" opacity="0.400000" r="0.350000" stroke="none" /><circle cx="719.052173" cy="681.360154" fill="#111111" opacity="0.400000" r="0.434663" stroke="none" /><circle cx="718.574995" cy="707.655002" fill="#111111" opacity="0.400000" r="0.427976" stroke="none" /><circle cx="705.100244" cy="721.560109" fill="#111111" opacity="0.400000" r="0.646223" stroke="none" /><circle cx="677.843367" cy="722.909397" fill="#111111" opacity="0.400000" r="0.350000" stroke="none" /><circle cx="653.538038" cy="718.529610" fill="#111111" opacity="0.400000" r="0.546440" stroke="none" /><circle cx="629.246794" cy="716.955082" fill="#111111" opacity="0.400000" r="0.617150" stroke="none" /><circle cx="599.787733" cy="719.193590" fill="#111111" opacity="0.400000" r="0.350000" stroke="none" /><circle cx="572.215539" cy="719.429525" fill="#111111" opacity="0.400000" r="0.351699" stroke="none" /><circle cx="544.548277" cy="719.509557" fill="#111111" opacity="0.400000" r="0.452568" stroke="none" /><circle cx="517.202435" cy="720.731974" fill="#111111" opacity="0.400000" r="0.490742" stroke="none" /><circle cx="495.101504" cy="719.241877" fill="#111111" opacity="0.400000" r="0.388755" stroke="none" /><circle cx="464.692452" cy="717.179498" fill="#111111" opacity="0.400000" r="0.455492" stroke="none" /><circle cx="442.881326" cy="717.153671" fill="#111111" opacity="0.400000" r="0.582688" stroke="none" /><circle cx="410.375684" cy="720.746374" fill="#111111" opacity="0.400000" r="0.532660" stroke="none" /><circle cx="384.108128" cy="719.695667" fill="#111111" opacity="0.400000" r="0.356257" stroke="none" /><circle cx="362.633797" cy="721.985902" fill="#111111" opacity="0.400000" r="0.558359" stroke="none" /><circle cx="331.076628" cy="719.609200" fill="#111111" opacity="0.400000" r="0.350000" stroke="none" /><circle cx="308.873983" cy="720.331878" fill="#111111" opacity="0.400000" r="0.614606" stroke="none" /><circle cx="277.348057" cy="719.923544" fill="#111111" opacity="0.400000" r="0.377722" stroke="none" /><circle cx="280.743983" cy="695.688364" fill="#111111" opacity="0.400000" r="0.350000" stroke="none" /><circle cx="280.493406" cy="668.569005" fill="#111111" opacity="0.400000" r="0.631173" stroke="none" /><circle cx="282.491541" cy="640.841762" fill="#111111" opacity="0.400000" r="0.598845" stroke="none" /><circle cx="278.943478" cy="611.699090" fill="#111111" opacity="0.400000" r="0.501068" stroke="none" /><circle cx="279.101247" cy="588.065802" fill="#111111" opacity="0.400000" r="0.467254" stroke="none" /><circle cx="281.886861" cy="559.004343" fill="#111111" opacity="0.400000" r="0.439215" stroke="none" /><circle cx="279.762633" cy="530.130665" fill="#111111" opacity="0.400000" r="0.435653" stroke="none" /><circle cx="278.455006" cy="506.455752" fill="#111111" opacity="0.400000" r="0.589553" stroke="none" /><circle cx="277.988851" cy="478.949554" fill="#111111" opacity="0.400000" r="0.358627" stroke="none" /><circle cx="278.393203" cy="455.355291" fill="#111111" opacity="0.400000" r="0.467735" stroke="none" /><circle cx="279.488586" cy="429.447955" fill="#111111" opacity="0.400000" r="0.434741" stroke="none" /><circle cx="278.827300" cy="401.042902" fill="#111111" opacity="0.400000" r="0.390441" stroke="none" /><circle cx="282.727842" cy="376.108333" fill="#111111" opacity="0.400000" r="0.433906" stroke="none" /><circle cx="277.609333" cy="346.572936" fill="#111111" opacity="0.400000" r="0.565722" stroke="none" /><circle cx="281.536278" cy="319.322710" fill="#111111" opacity="0.400000" r="0.361257" stroke="none" /><circle cx="278.563427" cy="294.566773" fill="#111111" opacity="0.400000" r="0.350409" stroke="none" /></g><g id="surface_000_000_wash"><circle cx="429.067751" cy="684.648897" fill="#111111" opacity="0.147281" r="17.608647" stroke="none" /><circle cx="414.382314" cy="527.953799" fill="#111111" opacity="0.100314" r="9.235980" stroke="none" /><circle cx="647.346482" cy="518.059505" fill="#111111" opacity="0.148564" r="14.818199" stroke="none" /><circle cx="674.357655" cy="410.607659" fill="#111111" opacity="0.100564" r="13.881300" stroke="none" /><circle cx="565.403705" cy="372.305378" fill="#111111" opacity="0.101705" r="14.201497" stroke="none" /><circle cx="453.177094" cy="446.373294" fill="#111111" opacity="0.127005" r="20.509161" stroke="none" /><circle cx="534.582255" cy="600.253470" fill="#111111" opacity="0.077210" r="17.110963" stroke="none" /><circle cx="428.298694" cy="625.299864" fill="#111111" opacity="0.113094" r="18.362458" stroke="none" /><circle cx="719.049223" cy="578.398156" fill="#111111" opacity="0.100143" r="11.420374" stroke="none" /><circle cx="701.633060" cy="521.839374" fill="#111111" opacity="0.140751" r="10.964835" stroke="none" /><circle cx="654.060074" cy="438.803308" fill="#111111" opacity="0.146739" r="19.044024" stroke="none" /><circle cx="550.403826" cy="522.100504" fill="#111111" opacity="0.130254" r="15.517922" stroke="none" /><circle cx="700.288360" cy="281.518351" fill="#111111" opacity="0.112128" r="11.204108" stroke="none" /><circle cx="416.123667" cy="306.560583" fill="#111111" opacity="0.135626" r="16.989793" stroke="none" /><circle cx="674.225188" cy="303.669326" fill="#111111" opacity="0.133771" r="20.603238" stroke="none" /><circle cx="404.368494" cy="365.535646" fill="#111111" opacity="0.120859" r="7.474319" stroke="none" /><circle cx="315.924879" cy="374.785510" fill="#111111" opacity="0.144637" r="10.693458" stroke="none" /><circle cx="419.303652" cy="352.718396" fill="#111111" opacity="0.097018" r="8.113610" stroke="none" /><circle cx="420.620441" cy="582.779150" fill="#111111" opacity="0.117799" r="15.851794" stroke="none" /><circle cx="601.694724" cy="480.047784" fill="#111111" opacity="0.112175" r="16.731971" stroke="none" /><circle cx="507.273370" cy="434.852264" fill="#111111" opacity="0.142719" r="19.671285" stroke="none" /><circle cx="406.822672" cy="538.269030" fill="#111111" opacity="0.133777" r="10.306625" stroke="none" /><circle cx="656.058096" cy="468.461986" fill="#111111" opacity="0.119949" r="16.283050" stroke="none" /><circle cx="441.112775" cy="674.293264" fill="#111111" opacity="0.141398" r="9.893385" stroke="none" /><circle cx="380.842688" cy="534.976719" fill="#111111" opacity="0.132970" r="20.406508" stroke="none" /><circle cx="657.489988" cy="601.455018" fill="#111111" opacity="0.112046" r="14.192149" stroke="none" /></g></g></g><g id="layer_20_presence" /></g></svg>